<mxfile host="Electron" agent="Mozilla/5.0 (Windows NT 10.0; Win64; x64) AppleWebKit/537.36 (KHTML, like Gecko) draw.io/28.2.5 Chrome/138.0.7204.251 Electron/37.6.1 Safari/537.36" version="28.2.5">
  <diagram name="Page-1" id="QIWNPv452v9JIRUy8Z8f">
    <mxGraphModel dx="872" dy="600" grid="1" gridSize="10" guides="1" tooltips="1" connect="1" arrows="1" fold="1" page="1" pageScale="1" pageWidth="827" pageHeight="1169" math="0" shadow="0">
      <root>
        <mxCell id="0" />
        <mxCell id="1" parent="0" />
        <mxCell id="zX2cw3fYwvMlh7MvfQjz-2" value="ingredient" style="swimlane;fontStyle=1;align=center;verticalAlign=middle;childLayout=stackLayout;horizontal=1;startSize=29;horizontalStack=0;resizeParent=1;resizeParentMax=0;resizeLast=0;collapsible=0;marginBottom=0;html=1;whiteSpace=wrap;" parent="1" vertex="1">
          <mxGeometry x="140" y="340.5" width="140" height="98" as="geometry" />
        </mxCell>
        <mxCell id="zX2cw3fYwvMlh7MvfQjz-3" value="name" style="text;html=1;strokeColor=none;fillColor=none;align=center;verticalAlign=middle;spacingLeft=4;spacingRight=4;overflow=hidden;rotatable=0;points=[[0,0.5],[1,0.5]];portConstraint=eastwest;whiteSpace=wrap;" parent="zX2cw3fYwvMlh7MvfQjz-2" vertex="1">
          <mxGeometry y="29" width="140" height="25" as="geometry" />
        </mxCell>
        <mxCell id="zX2cw3fYwvMlh7MvfQjz-6" value="quantity_in_stok" style="text;html=1;strokeColor=none;fillColor=none;align=center;verticalAlign=middle;spacingLeft=4;spacingRight=4;overflow=hidden;rotatable=0;points=[[0,0.5],[1,0.5]];portConstraint=eastwest;whiteSpace=wrap;" parent="zX2cw3fYwvMlh7MvfQjz-2" vertex="1">
          <mxGeometry y="54" width="140" height="25" as="geometry" />
        </mxCell>
        <mxCell id="zX2cw3fYwvMlh7MvfQjz-4" value="unite_of_mesurement" style="text;html=1;strokeColor=none;fillColor=none;align=left;verticalAlign=middle;spacingLeft=4;spacingRight=4;overflow=hidden;rotatable=0;points=[[0,0.5],[1,0.5]];portConstraint=eastwest;whiteSpace=wrap;" parent="zX2cw3fYwvMlh7MvfQjz-2" vertex="1">
          <mxGeometry y="79" width="140" height="19" as="geometry" />
        </mxCell>
        <mxCell id="zX2cw3fYwvMlh7MvfQjz-7" value="dish" style="swimlane;fontStyle=1;align=center;verticalAlign=middle;childLayout=stackLayout;horizontal=1;startSize=29;horizontalStack=0;resizeParent=1;resizeParentMax=0;resizeLast=0;collapsible=0;marginBottom=0;html=1;whiteSpace=wrap;" parent="1" vertex="1">
          <mxGeometry x="429.9" y="356" width="140" height="67" as="geometry" />
        </mxCell>
        <mxCell id="zX2cw3fYwvMlh7MvfQjz-9" value="name" style="text;html=1;strokeColor=none;fillColor=none;align=left;verticalAlign=middle;spacingLeft=4;spacingRight=4;overflow=hidden;rotatable=0;points=[[0,0.5],[1,0.5]];portConstraint=eastwest;whiteSpace=wrap;" parent="zX2cw3fYwvMlh7MvfQjz-7" vertex="1">
          <mxGeometry y="29" width="140" height="19" as="geometry" />
        </mxCell>
        <mxCell id="NR-lFREqCd5OJNQoKWAE-4" value="ID" style="text;html=1;strokeColor=none;fillColor=none;align=left;verticalAlign=middle;spacingLeft=4;spacingRight=4;overflow=hidden;rotatable=0;points=[[0,0.5],[1,0.5]];portConstraint=eastwest;whiteSpace=wrap;" vertex="1" parent="zX2cw3fYwvMlh7MvfQjz-7">
          <mxGeometry y="48" width="140" height="19" as="geometry" />
        </mxCell>
        <mxCell id="zX2cw3fYwvMlh7MvfQjz-11" value="" style="endArrow=diamondThin;html=1;rounded=0;exitX=1;exitY=0.22;exitDx=0;exitDy=0;entryX=0;entryY=0.5;entryDx=0;entryDy=0;endFill=0;endSize=21;exitPerimeter=0;" parent="1" source="zX2cw3fYwvMlh7MvfQjz-6" edge="1">
          <mxGeometry width="50" height="50" relative="1" as="geometry">
            <mxPoint x="660" y="680" as="sourcePoint" />
            <mxPoint x="429.9000000000001" y="397.5" as="targetPoint" />
          </mxGeometry>
        </mxCell>
        <mxCell id="zX2cw3fYwvMlh7MvfQjz-12" value="1..*" style="edgeLabel;html=1;align=center;verticalAlign=middle;resizable=0;points=[];" parent="zX2cw3fYwvMlh7MvfQjz-11" vertex="1" connectable="0">
          <mxGeometry x="0.7971" y="-1" relative="1" as="geometry">
            <mxPoint x="-19" y="-9" as="offset" />
          </mxGeometry>
        </mxCell>
        <mxCell id="zX2cw3fYwvMlh7MvfQjz-13" value="1..*" style="edgeLabel;html=1;align=center;verticalAlign=middle;resizable=0;points=[];" parent="zX2cw3fYwvMlh7MvfQjz-11" vertex="1" connectable="0">
          <mxGeometry x="-0.8973" y="2" relative="1" as="geometry">
            <mxPoint x="2" y="-8" as="offset" />
          </mxGeometry>
        </mxCell>
        <mxCell id="zX2cw3fYwvMlh7MvfQjz-14" value="table&amp;nbsp;" style="swimlane;fontStyle=1;align=center;verticalAlign=middle;childLayout=stackLayout;horizontal=1;startSize=29;horizontalStack=0;resizeParent=1;resizeParentMax=0;resizeLast=0;collapsible=0;marginBottom=0;html=1;whiteSpace=wrap;" parent="1" vertex="1">
          <mxGeometry x="420" y="720" width="140" height="73" as="geometry" />
        </mxCell>
        <mxCell id="zX2cw3fYwvMlh7MvfQjz-15" value="ID" style="text;html=1;strokeColor=none;fillColor=none;align=center;verticalAlign=middle;spacingLeft=4;spacingRight=4;overflow=hidden;rotatable=0;points=[[0,0.5],[1,0.5]];portConstraint=eastwest;whiteSpace=wrap;" parent="zX2cw3fYwvMlh7MvfQjz-14" vertex="1">
          <mxGeometry y="29" width="140" height="25" as="geometry" />
        </mxCell>
        <mxCell id="zX2cw3fYwvMlh7MvfQjz-16" value="Max_number" style="text;html=1;strokeColor=none;fillColor=none;align=left;verticalAlign=middle;spacingLeft=4;spacingRight=4;overflow=hidden;rotatable=0;points=[[0,0.5],[1,0.5]];portConstraint=eastwest;whiteSpace=wrap;" parent="zX2cw3fYwvMlh7MvfQjz-14" vertex="1">
          <mxGeometry y="54" width="140" height="19" as="geometry" />
        </mxCell>
        <mxCell id="zX2cw3fYwvMlh7MvfQjz-17" value="meal" style="swimlane;fontStyle=1;align=center;verticalAlign=middle;childLayout=stackLayout;horizontal=1;startSize=29;horizontalStack=0;resizeParent=1;resizeParentMax=0;resizeLast=0;collapsible=0;marginBottom=0;html=1;whiteSpace=wrap;" parent="1" vertex="1">
          <mxGeometry x="429.9" y="524.5" width="140" height="92" as="geometry" />
        </mxCell>
        <mxCell id="zX2cw3fYwvMlh7MvfQjz-18" value="Date" style="text;html=1;strokeColor=none;fillColor=none;align=center;verticalAlign=middle;spacingLeft=4;spacingRight=4;overflow=hidden;rotatable=0;points=[[0,0.5],[1,0.5]];portConstraint=eastwest;whiteSpace=wrap;" parent="zX2cw3fYwvMlh7MvfQjz-17" vertex="1">
          <mxGeometry y="29" width="140" height="25" as="geometry" />
        </mxCell>
        <mxCell id="zX2cw3fYwvMlh7MvfQjz-19" value="start_date" style="text;html=1;strokeColor=none;fillColor=none;align=left;verticalAlign=middle;spacingLeft=4;spacingRight=4;overflow=hidden;rotatable=0;points=[[0,0.5],[1,0.5]];portConstraint=eastwest;whiteSpace=wrap;" parent="zX2cw3fYwvMlh7MvfQjz-17" vertex="1">
          <mxGeometry y="54" width="140" height="19" as="geometry" />
        </mxCell>
        <mxCell id="NR-lFREqCd5OJNQoKWAE-6" value="end_time" style="text;html=1;strokeColor=none;fillColor=none;align=left;verticalAlign=middle;spacingLeft=4;spacingRight=4;overflow=hidden;rotatable=0;points=[[0,0.5],[1,0.5]];portConstraint=eastwest;whiteSpace=wrap;" vertex="1" parent="zX2cw3fYwvMlh7MvfQjz-17">
          <mxGeometry y="73" width="140" height="19" as="geometry" />
        </mxCell>
        <mxCell id="zX2cw3fYwvMlh7MvfQjz-20" value="" style="endArrow=diamondThin;html=1;rounded=0;endFill=0;endSize=25;entryX=0.5;entryY=0;entryDx=0;entryDy=0;exitX=0.501;exitY=1.263;exitDx=0;exitDy=0;exitPerimeter=0;" parent="1" source="NR-lFREqCd5OJNQoKWAE-4" edge="1" target="zX2cw3fYwvMlh7MvfQjz-17">
          <mxGeometry width="50" height="50" relative="1" as="geometry">
            <mxPoint x="500" y="440" as="sourcePoint" />
            <mxPoint x="440" y="530" as="targetPoint" />
          </mxGeometry>
        </mxCell>
        <mxCell id="zX2cw3fYwvMlh7MvfQjz-21" value="1..*" style="edgeLabel;html=1;align=center;verticalAlign=middle;resizable=0;points=[];" parent="zX2cw3fYwvMlh7MvfQjz-20" vertex="1" connectable="0">
          <mxGeometry x="0.7971" y="-1" relative="1" as="geometry">
            <mxPoint x="21" y="-16" as="offset" />
          </mxGeometry>
        </mxCell>
        <mxCell id="NR-lFREqCd5OJNQoKWAE-5" value="1..*" style="edgeLabel;html=1;align=center;verticalAlign=middle;resizable=0;points=[];" vertex="1" connectable="0" parent="zX2cw3fYwvMlh7MvfQjz-20">
          <mxGeometry x="-0.7305" y="1" relative="1" as="geometry">
            <mxPoint as="offset" />
          </mxGeometry>
        </mxCell>
        <mxCell id="zX2cw3fYwvMlh7MvfQjz-23" value="waiter" style="swimlane;fontStyle=1;align=center;verticalAlign=middle;childLayout=stackLayout;horizontal=1;startSize=29;horizontalStack=0;resizeParent=1;resizeParentMax=0;resizeLast=0;collapsible=0;marginBottom=0;html=1;whiteSpace=wrap;" parent="1" vertex="1">
          <mxGeometry x="690" y="490" width="140" height="117" as="geometry" />
        </mxCell>
        <mxCell id="zX2cw3fYwvMlh7MvfQjz-24" value="name" style="text;html=1;strokeColor=none;fillColor=none;align=center;verticalAlign=middle;spacingLeft=4;spacingRight=4;overflow=hidden;rotatable=0;points=[[0,0.5],[1,0.5]];portConstraint=eastwest;whiteSpace=wrap;" parent="zX2cw3fYwvMlh7MvfQjz-23" vertex="1">
          <mxGeometry y="29" width="140" height="25" as="geometry" />
        </mxCell>
        <mxCell id="zX2cw3fYwvMlh7MvfQjz-25" value="ID" style="text;html=1;strokeColor=none;fillColor=none;align=left;verticalAlign=middle;spacingLeft=4;spacingRight=4;overflow=hidden;rotatable=0;points=[[0,0.5],[1,0.5]];portConstraint=eastwest;whiteSpace=wrap;" parent="zX2cw3fYwvMlh7MvfQjz-23" vertex="1">
          <mxGeometry y="54" width="140" height="19" as="geometry" />
        </mxCell>
        <mxCell id="zX2cw3fYwvMlh7MvfQjz-26" value="address" style="text;html=1;strokeColor=none;fillColor=none;align=left;verticalAlign=middle;spacingLeft=4;spacingRight=4;overflow=hidden;rotatable=0;points=[[0,0.5],[1,0.5]];portConstraint=eastwest;whiteSpace=wrap;" parent="zX2cw3fYwvMlh7MvfQjz-23" vertex="1">
          <mxGeometry y="73" width="140" height="25" as="geometry" />
        </mxCell>
        <mxCell id="zX2cw3fYwvMlh7MvfQjz-27" value="phone_number" style="text;html=1;strokeColor=none;fillColor=none;align=left;verticalAlign=middle;spacingLeft=4;spacingRight=4;overflow=hidden;rotatable=0;points=[[0,0.5],[1,0.5]];portConstraint=eastwest;whiteSpace=wrap;" parent="zX2cw3fYwvMlh7MvfQjz-23" vertex="1">
          <mxGeometry y="98" width="140" height="19" as="geometry" />
        </mxCell>
        <mxCell id="zX2cw3fYwvMlh7MvfQjz-28" value="" style="endArrow=none;html=1;rounded=0;entryX=0.974;entryY=-0.027;entryDx=0;entryDy=0;exitX=0;exitY=0.5;exitDx=0;exitDy=0;entryPerimeter=0;" parent="1" source="zX2cw3fYwvMlh7MvfQjz-25" target="zX2cw3fYwvMlh7MvfQjz-18" edge="1">
          <mxGeometry width="50" height="50" relative="1" as="geometry">
            <mxPoint x="340" y="700" as="sourcePoint" />
            <mxPoint x="390" y="650" as="targetPoint" />
          </mxGeometry>
        </mxCell>
        <mxCell id="zX2cw3fYwvMlh7MvfQjz-39" value="1..1" style="edgeLabel;html=1;align=center;verticalAlign=middle;resizable=0;points=[];" parent="zX2cw3fYwvMlh7MvfQjz-28" vertex="1" connectable="0">
          <mxGeometry x="-0.8982" y="2" relative="1" as="geometry">
            <mxPoint x="-14" y="-15" as="offset" />
          </mxGeometry>
        </mxCell>
        <mxCell id="zX2cw3fYwvMlh7MvfQjz-40" value="1..N" style="edgeLabel;html=1;align=center;verticalAlign=middle;resizable=0;points=[];" parent="zX2cw3fYwvMlh7MvfQjz-28" vertex="1" connectable="0">
          <mxGeometry x="0.8929" y="-3" relative="1" as="geometry">
            <mxPoint x="17" as="offset" />
          </mxGeometry>
        </mxCell>
        <mxCell id="zX2cw3fYwvMlh7MvfQjz-31" value="customer" style="swimlane;fontStyle=1;align=center;verticalAlign=middle;childLayout=stackLayout;horizontal=1;startSize=29;horizontalStack=0;resizeParent=1;resizeParentMax=0;resizeLast=0;collapsible=0;marginBottom=0;html=1;whiteSpace=wrap;" parent="1" vertex="1">
          <mxGeometry x="130" y="512" width="140" height="98" as="geometry" />
        </mxCell>
        <mxCell id="zX2cw3fYwvMlh7MvfQjz-32" value="name" style="text;html=1;strokeColor=none;fillColor=none;align=center;verticalAlign=middle;spacingLeft=4;spacingRight=4;overflow=hidden;rotatable=0;points=[[0,0.5],[1,0.5]];portConstraint=eastwest;whiteSpace=wrap;" parent="zX2cw3fYwvMlh7MvfQjz-31" vertex="1">
          <mxGeometry y="29" width="140" height="25" as="geometry" />
        </mxCell>
        <mxCell id="zX2cw3fYwvMlh7MvfQjz-34" value=" tax_identification" style="text;html=1;strokeColor=none;fillColor=none;align=center;verticalAlign=middle;spacingLeft=4;spacingRight=4;overflow=hidden;rotatable=0;points=[[0,0.5],[1,0.5]];portConstraint=eastwest;whiteSpace=wrap;" parent="zX2cw3fYwvMlh7MvfQjz-31" vertex="1">
          <mxGeometry y="54" width="140" height="25" as="geometry" />
        </mxCell>
        <mxCell id="zX2cw3fYwvMlh7MvfQjz-33" value="address" style="text;html=1;strokeColor=none;fillColor=none;align=left;verticalAlign=middle;spacingLeft=4;spacingRight=4;overflow=hidden;rotatable=0;points=[[0,0.5],[1,0.5]];portConstraint=eastwest;whiteSpace=wrap;" parent="zX2cw3fYwvMlh7MvfQjz-31" vertex="1">
          <mxGeometry y="79" width="140" height="19" as="geometry" />
        </mxCell>
        <mxCell id="zX2cw3fYwvMlh7MvfQjz-35" value="" style="endArrow=none;html=1;rounded=0;entryX=0.5;entryY=0;entryDx=0;entryDy=0;exitX=0.508;exitY=1.132;exitDx=0;exitDy=0;exitPerimeter=0;" parent="1" source="NR-lFREqCd5OJNQoKWAE-6" target="zX2cw3fYwvMlh7MvfQjz-14" edge="1">
          <mxGeometry width="50" height="50" relative="1" as="geometry">
            <mxPoint x="340" y="700" as="sourcePoint" />
            <mxPoint x="390" y="650" as="targetPoint" />
            <Array as="points" />
          </mxGeometry>
        </mxCell>
        <mxCell id="zX2cw3fYwvMlh7MvfQjz-36" value="1..N" style="edgeLabel;html=1;align=center;verticalAlign=middle;resizable=0;points=[];" parent="zX2cw3fYwvMlh7MvfQjz-35" vertex="1" connectable="0">
          <mxGeometry x="-0.7348" y="-1" relative="1" as="geometry">
            <mxPoint y="16" as="offset" />
          </mxGeometry>
        </mxCell>
        <mxCell id="zX2cw3fYwvMlh7MvfQjz-37" value="0..1" style="edgeLabel;html=1;align=center;verticalAlign=middle;resizable=0;points=[];" parent="zX2cw3fYwvMlh7MvfQjz-35" vertex="1" connectable="0">
          <mxGeometry x="0.7502" y="1" relative="1" as="geometry">
            <mxPoint y="-8" as="offset" />
          </mxGeometry>
        </mxCell>
        <mxCell id="pbI9dh9X8T9HdlXio2jz-5" value="" style="endArrow=none;html=1;rounded=0;exitX=0;exitY=0.5;exitDx=0;exitDy=0;entryX=1.014;entryY=1.04;entryDx=0;entryDy=0;entryPerimeter=0;" parent="1" source="zX2cw3fYwvMlh7MvfQjz-18" target="zX2cw3fYwvMlh7MvfQjz-32" edge="1">
          <mxGeometry width="50" height="50" relative="1" as="geometry">
            <mxPoint x="520" y="540" as="sourcePoint" />
            <mxPoint x="570" y="490" as="targetPoint" />
          </mxGeometry>
        </mxCell>
        <mxCell id="pbI9dh9X8T9HdlXio2jz-6" value="1..*" style="edgeLabel;html=1;align=center;verticalAlign=middle;resizable=0;points=[];" parent="pbI9dh9X8T9HdlXio2jz-5" vertex="1" connectable="0">
          <mxGeometry x="-0.8281" relative="1" as="geometry">
            <mxPoint x="-6" y="-5" as="offset" />
          </mxGeometry>
        </mxCell>
        <mxCell id="pbI9dh9X8T9HdlXio2jz-7" value="0..1" style="edgeLabel;html=1;align=center;verticalAlign=middle;resizable=0;points=[];" parent="pbI9dh9X8T9HdlXio2jz-5" vertex="1" connectable="0">
          <mxGeometry x="0.8279" y="-4" relative="1" as="geometry">
            <mxPoint x="6" as="offset" />
          </mxGeometry>
        </mxCell>
      </root>
    </mxGraphModel>
  </diagram>
</mxfile>
